<svg xmlns="http://www.w3.org/2000/svg" x="0" y="0" viewBox="0 0 192 192" xml:space="preserve">
	<style>
		path {
			fill: black;
		}

		@media (prefers-color-scheme: dark) {
			path {
				fill: white;
			}
		}
	</style>
	<path class="icon_head" d="M73.3,142.8l31.8,2.9c1.9,0.2,3.6-1.4,3.6-3.4v-14.9c0-1,0.7-1.7,1.7-1.7h11.1c3.4,0,6.1-2.9,6.1-6.1v-14.9
		c0-0.7,0.5-1.2,1.2-1.2h5.4c3.4,0,5.2-3.6,3.6-6.4l-9.5-14.4c-0.5-1-0.7-1.9-1-2.9c-1.7-18.9-17.6-33.6-36.7-33.6
		c-20.3,0-36.9,16.6-36.9,36.9c0,12,5.9,23.9,14.9,31.8c1.2,1,1.7,2.2,1.7,3.6v21.1C70.4,141.2,71.6,142.6,73.3,142.8z" />
	<g class="icon_arrows">
		<path d="M18.2,105.8c-2.5-18.4,2-37.1,11.9-52.6c23.5-36.4,72.2-46.8,108.6-23.4l5.5,3.6l-6.8,10.6
			c-1.3,2-1.5,4.4-0.2,6.4c1,2,3.3,3.3,5.5,3.3l37-0.1c4.2-0.1,7.5-5,5.6-8.8l-15.3-33.5c-1.1-2.2-3.1-3.5-5-3.8
			c-2.3,0-4.5,1-5.7,2.8l-6.9,10.7l-5.5-3.6C103.5-10.7,45.3,1.9,17.3,45.2C5.2,63.9,0.3,86,3.1,108.1c0.4,4.2,4.4,7.1,8.5,6.6
			C15.9,113.8,18.8,110.1,18.2,105.8z" />
		<path d="M27.1,184.5c2.3,0,4.5-1,5.7-2.8l6.8-10.6l5.5,3.6c43.4,28,101.6,15.4,129.6-27.9c12-18.7,17.1-40.8,14.1-62.9
			c-0.4-4.2-4.4-7.1-8.5-6.6c-4.2,0.4-7.1,4.4-6.6,8.5c2.5,18.4-2,37.1-11.9,52.6c-23.5,36.4-72.2,46.9-108.6,23.5l-5.5-3.6l6.8-10.6
			c1.3-2,1.5-4.4,0.2-6.4c-1-2-3.3-3.3-5.5-3.3l-36.8,0.4c-2.3,0-4,1.1-5.2,2.9c-1.2,1.8-1.2,4-0.4,5.9l15.3,33.7
			C23.1,183,25,184.3,27.1,184.5z" />
	</g>
</svg>